<svg width="500" height="501" viewBox="0 0 500 501" fill="none" xmlns="http://www.w3.org/2000/svg">
<circle cx="250" cy="250.058" r="250" fill="#F2F0E3"/>
<g clip-path="url(#clip0_3734_401)">
<path fill-rule="evenodd" clip-rule="evenodd" d="M250.003 317.365C287.176 317.365 317.311 287.231 317.311 250.058C317.311 212.885 287.176 182.75 250.003 182.75C212.83 182.75 182.695 212.885 182.695 250.058C182.695 287.231 212.83 317.365 250.003 317.365ZM303.849 250.058C303.849 279.796 279.742 303.904 250.003 303.904C220.265 303.904 196.157 279.796 196.157 250.058C196.157 220.319 220.265 196.211 250.003 196.211C279.742 196.211 303.849 220.319 303.849 250.058Z" fill="#F76F53"/>
<path fill-rule="evenodd" clip-rule="evenodd" d="M366.669 250.057C366.669 314.49 314.436 366.724 250.002 366.724C185.569 366.724 133.336 314.49 133.336 250.057C133.336 185.624 185.569 133.391 250.002 133.391C314.436 133.391 366.669 185.624 366.669 250.057ZM250.002 344.288C302.045 344.288 344.233 302.099 344.233 250.057C344.233 198.015 302.045 155.826 250.002 155.826C197.96 155.826 155.771 198.015 155.771 250.057C155.771 302.099 197.96 344.288 250.002 344.288Z" fill="#F76F53"/>
<path fill-rule="evenodd" clip-rule="evenodd" d="M425 250.058C425 346.708 346.65 425.058 250 425.058C153.35 425.058 75 346.708 75 250.058C75 153.408 153.35 75.0581 250 75.0581C346.65 75.0581 425 153.408 425 250.058ZM250 393.648C329.302 393.648 393.59 329.36 393.59 250.058C393.59 170.756 329.302 106.468 250 106.468C170.698 106.468 106.41 170.756 106.41 250.058C106.41 329.36 170.698 393.648 250 393.648Z" fill="#F76F53"/>
</g>
<defs>
<clipPath id="clip0_3734_401">
<rect width="350" height="350" fill="white" transform="translate(75 75.0581)"/>
</clipPath>
</defs>
</svg>
